<svg xmlns="http://www.w3.org/2000/svg" width="161.142" height="126.728" viewBox="0 0 161.142 126.728">
  <g id="Group_966" data-name="Group 966" transform="translate(-1205.751 -4939.148)">
    <g id="Group_240" data-name="Group 240" transform="translate(643.636 4410.446)">
      <g id="Group_219" data-name="Group 219">
        <g id="Path_781" data-name="Path 781">
          <path id="Path_4639" data-name="Path 4639" d="M578.115,607.484h1.726A11.407,11.407,0,0,0,591.217,596.1V531.321h3.277a1.31,1.31,0,0,0,0-2.619H563.462a1.31,1.31,0,1,0-.072,2.619q.036,0,.072,0h3.275V596.1A11.406,11.406,0,0,0,578.115,607.484Zm-8.753-25.092h7.094a1.31,1.31,0,0,0,0-2.619h-7.094v-9.46h7.094a1.31,1.31,0,0,0,0-2.619h-7.094v-9.489h7.094a1.31,1.31,0,0,0,0-2.619h-7.094v-9.458h7.094a1.31,1.31,0,0,0,0-2.619h-7.094V531.321H588.6v64.79a8.785,8.785,0,0,1-8.755,8.753h-1.73a8.783,8.783,0,0,1-8.755-8.753Z" fill="#00573d"/>
        </g>
        <g id="Path_782" data-name="Path 782">
          <path id="Path_4640" data-name="Path 4640" d="M619.525,607.484h1.726A11.4,11.4,0,0,0,632.625,596.1V531.321H635.9a1.31,1.31,0,0,0,0-2.619H604.874a1.31,1.31,0,1,0-.072,2.619q.036,0,.072,0h3.277V596.1A11.4,11.4,0,0,0,619.525,607.484Zm-8.755-76.163h19.236v64.79a8.781,8.781,0,0,1-8.755,8.753h-1.726a8.78,8.78,0,0,1-8.755-8.753Z" fill="#00573d"/>
        </g>
      </g>
      <g id="Group_220" data-name="Group 220">
        <g id="Path_783" data-name="Path 783">
          <path id="Path_4641" data-name="Path 4641" d="M663.428,647.33h-27.5a2.183,2.183,0,0,1-2.181-2.179V621.373a2.185,2.185,0,0,1,2.181-2.181h27.5a2.185,2.185,0,0,1,2.183,2.181v23.778A2.183,2.183,0,0,1,663.428,647.33Zm-27.5-26.233a.274.274,0,0,0-.276.272v23.782a.274.274,0,0,0,.274.274h27.5a.276.276,0,0,0,.278-.274h0V621.373a.278.278,0,0,0-.278-.276h-27.5Z" fill="#00573d"/>
        </g>
      </g>
      <g id="Group_221" data-name="Group 221">
        <g id="Path_784" data-name="Path 784">
          <path id="Path_4642" data-name="Path 4642" d="M663.79,616.419H635.574a1.824,1.824,0,0,1-1.821-1.821V603.215a1.825,1.825,0,0,1,1.821-1.821h28.22a1.825,1.825,0,0,1,1.821,1.821V614.6A1.824,1.824,0,0,1,663.79,616.419Zm-.084-13.2-28.136.084.084,11.3,28.053-.084Z" fill="#00573d"/>
        </g>
      </g>
      <g id="Group_222" data-name="Group 222">
        <g id="Rectangle_207" data-name="Rectangle 207">
          <rect id="Rectangle_364" data-name="Rectangle 364" width="19.161" height="1.905" transform="translate(671.786 603.993)" fill="#00573d"/>
        </g>
      </g>
      <g id="Group_223" data-name="Group 223">
        <g id="Rectangle_208" data-name="Rectangle 208">
          <rect id="Rectangle_365" data-name="Rectangle 365" width="19.161" height="1.905" transform="translate(671.786 611.263)" fill="#00573d"/>
        </g>
      </g>
      <g id="Group_224" data-name="Group 224">
        <g id="Rectangle_209" data-name="Rectangle 209">
          <rect id="Rectangle_366" data-name="Rectangle 366" width="27.713" height="1.905" transform="translate(671.786 619.666)" fill="#00573d"/>
        </g>
      </g>
      <g id="Group_225" data-name="Group 225">
        <g id="Rectangle_210" data-name="Rectangle 210">
          <rect id="Rectangle_367" data-name="Rectangle 367" width="27.713" height="1.905" transform="translate(671.786 628.069)" fill="#00573d"/>
        </g>
      </g>
      <g id="Group_226" data-name="Group 226">
        <g id="Rectangle_211" data-name="Rectangle 211">
          <rect id="Rectangle_368" data-name="Rectangle 368" width="27.713" height="1.905" transform="translate(671.786 644.877)" fill="#00573d"/>
        </g>
      </g>
      <g id="Group_227" data-name="Group 227">
        <g id="Rectangle_212" data-name="Rectangle 212">
          <rect id="Rectangle_369" data-name="Rectangle 369" width="19.161" height="1.905" transform="translate(671.786 636.472)" fill="#00573d"/>
        </g>
      </g>
      <g id="Group_228" data-name="Group 228">
        <g id="Rectangle_213" data-name="Rectangle 213">
          <rect id="Rectangle_370" data-name="Rectangle 370" width="4.487" height="1.905" transform="translate(695.012 636.472)" fill="#00573d"/>
        </g>
      </g>
      <g id="Group_229" data-name="Group 229">
        <g id="Rectangle_214" data-name="Rectangle 214">
          <rect id="Rectangle_371" data-name="Rectangle 371" width="27.715" height="1.905" transform="translate(635.822 562.201)" fill="#00573d"/>
        </g>
      </g>
      <g id="Group_230" data-name="Group 230">
        <g id="Rectangle_215" data-name="Rectangle 215">
          <rect id="Rectangle_372" data-name="Rectangle 372" width="27.715" height="1.905" transform="translate(635.822 579.007)" fill="#00573d"/>
        </g>
      </g>
      <g id="Group_231" data-name="Group 231">
        <g id="Rectangle_216" data-name="Rectangle 216">
          <rect id="Rectangle_373" data-name="Rectangle 373" width="19.163" height="1.905" transform="translate(635.822 570.604)" fill="#00573d"/>
        </g>
      </g>
      <g id="Group_232" data-name="Group 232">
        <g id="Rectangle_217" data-name="Rectangle 217">
          <rect id="Rectangle_374" data-name="Rectangle 374" width="4.487" height="1.905" transform="translate(659.05 570.604)" fill="#00573d"/>
        </g>
      </g>
      <g id="Group_233" data-name="Group 233">
        <g id="Rectangle_218" data-name="Rectangle 218">
          <rect id="Rectangle_375" data-name="Rectangle 375" width="4.193" height="1.905" transform="translate(635.822 587.416)" fill="#00573d"/>
        </g>
      </g>
      <g id="Group_234" data-name="Group 234">
        <g id="Rectangle_219" data-name="Rectangle 219">
          <rect id="Rectangle_376" data-name="Rectangle 376" width="4.191" height="1.905" transform="translate(643.663 587.416)" fill="#00573d"/>
        </g>
      </g>
      <g id="Group_235" data-name="Group 235">
        <g id="Rectangle_220" data-name="Rectangle 220">
          <rect id="Rectangle_377" data-name="Rectangle 377" width="4.191" height="1.905" transform="translate(651.504 587.416)" fill="#00573d"/>
        </g>
      </g>
      <g id="Group_236" data-name="Group 236">
        <g id="Rectangle_221" data-name="Rectangle 221">
          <rect id="Rectangle_378" data-name="Rectangle 378" width="4.191" height="1.905" transform="translate(659.346 587.416)" fill="#00573d"/>
        </g>
      </g>
      <g id="Group_237" data-name="Group 237">
        <g id="Rectangle_222" data-name="Rectangle 222">
          <rect id="Rectangle_379" data-name="Rectangle 379" width="4.193" height="1.905" transform="translate(635.822 554.369)" fill="#00573d"/>
        </g>
      </g>
      <g id="Group_238" data-name="Group 238">
        <g id="Rectangle_223" data-name="Rectangle 223">
          <rect id="Rectangle_380" data-name="Rectangle 380" width="4.191" height="1.905" transform="translate(643.663 554.369)" fill="#00573d"/>
        </g>
      </g>
      <g id="Path_785" data-name="Path 785">
        <path id="Path_4643" data-name="Path 4643" d="M675.3,583.421l-1.232,8.621,8.621-1.232Z" fill="#00573d"/>
      </g>
      <g id="Rectangle_224" data-name="Rectangle 224">
        <rect id="Rectangle_381" data-name="Rectangle 381" width="43.73" height="3.321" transform="translate(682.694 586.788) rotate(-45)" fill="#00573d"/>
      </g>
      <g id="Group_239" data-name="Group 239">
        <g id="Path_786" data-name="Path 786">
          <path id="Path_4644" data-name="Path 4644" d="M706.655,544.931a5.5,5.5,0,0,0-4.822-2.85h-66.35v2.857h66.35a2.7,2.7,0,0,1,2.642,2.172Z" fill="#00573d"/>
        </g>
        <g id="Path_787" data-name="Path 787">
          <path id="Path_4645" data-name="Path 4645" d="M624.516,609.962v39.919a5.555,5.555,0,0,0,5.549,5.549h71.768a5.554,5.554,0,0,0,5.549-5.549V572.816l-2.857,2.857v74.2a2.692,2.692,0,0,1-2.692,2.692H630.065a2.694,2.694,0,0,1-2.692-2.692v-40.93A13.851,13.851,0,0,1,624.516,609.962Z" fill="#00573d"/>
        </g>
      </g>
      <g id="Rectangle_225" data-name="Rectangle 225">
        <rect id="Rectangle_382" data-name="Rectangle 382" width="43.731" height="3.32" transform="translate(676.98 581.074) rotate(-45)" fill="#00573d"/>
      </g>
      <g id="Path_788" data-name="Path 788">
        <path id="Path_4646" data-name="Path 4646" d="M717.555,542.86a5.672,5.672,0,0,0-4.033,1.669l-3.57,3.57,8.064,8.064,3.57-3.57a5.7,5.7,0,0,0-4.031-9.733Z" fill="#00573d"/>
      </g>
    </g>
  </g>
</svg>
