<svg xmlns="http://www.w3.org/2000/svg" width="125.233" height="125.232" viewBox="0 0 125.233 125.232">
  <g id="Group_193" data-name="Group 193" transform="translate(-695.974 -2318.989)">
    <path id="Path_777" data-name="Path 777" d="M61.616,0A61.616,61.616,0,1,1,0,61.616,61.616,61.616,0,0,1,61.616,0Z" transform="translate(696.974 2319.989)" fill="none" stroke="#fff" stroke-width="2"/>
    <g id="Group_191" data-name="Group 191" transform="translate(718.493 2337.495)">
      <g id="Group_185" data-name="Group 185" transform="translate(0 0)">
        <path id="Path_719" data-name="Path 719" d="M555.461,374.071c-7.268,15.9-3.9,34.255,8.39,45.683l1.183-1.271c-11.738-10.918-14.951-28.477-7.995-43.691,6.6-14.444,20.8-23.331,35.856-22.711l-3.644,2.616,1.012,1.41,5.682-4.081a.856.856,0,0,0,.361-.668.867.867,0,0,0-.3-.7l-4.8-4.1-1.127,1.319,2.89,2.47C577.206,349.7,562.359,358.982,555.461,374.071Z" transform="translate(-551.665 -346.558)" fill="#fff"/>
        <path id="Path_720" data-name="Path 720" d="M602.9,439.249l1.127-1.32-2.889-2.469c15.756.647,30.6-8.635,37.5-23.723,7.268-15.9,3.9-34.256-8.391-45.684l-1.181,1.271c11.739,10.918,14.951,28.476,7.994,43.691-6.6,14.443-20.8,23.33-35.855,22.711l3.643-2.616-1.012-1.41-5.682,4.081a.868.868,0,0,0-.2,1.212.879.879,0,0,0,.14.153Z" transform="translate(-562.245 -351.029)" fill="#fff"/>
      </g>
      <path id="Path_721" data-name="Path 721" d="M616.83,384.3a.772.772,0,0,0-.783.022,17.115,17.115,0,0,1-8.054,2.308,7.883,7.883,0,0,0-5.253,2.171,9.21,9.21,0,0,0-2.455,6.631l-2.324,2.324V385.293l2.086-2.086a.771.771,0,0,0-1.09-1.09l-1.767,1.767-1.767-1.767a.771.771,0,0,0-1.09,1.09l2.086,2.086v10.873l-2.326-.93c-.291-8.613-7.617-8.72-7.693-8.72a12.181,12.181,0,0,1-6.474-2.159.771.771,0,0,0-1.232.617,15.571,15.571,0,0,0,2.5,8.979,9.685,9.685,0,0,0,7.622,3.439,13.6,13.6,0,0,0,4.52-.8l3.086,1.235v4.082c-7.149.58-11.879,9.06-12.228,11.208-.158.976.377,1.265.613,1.344a23.958,23.958,0,0,0,7.648,1.192c1.511,0,2.818-.118,3.843-.211a14.79,14.79,0,0,1,1.623-.1,107.359,107.359,0,0,0,13.982-.654.77.77,0,0,0,.7-.768c0-4.935-3.192-5.9-5.534-6.432-1.935-4.315-7.166-5.321-9.109-5.548v-2.005l2.892-2.892c.593.648,1.785,1.356,4.2,1.693a11.38,11.38,0,0,0,1.585.111,10.423,10.423,0,0,0,8.942-4.805,11.706,11.706,0,0,0,1.645-5.1v-3.967A.77.77,0,0,0,616.83,384.3Zm-34.435,8.69a13.818,13.818,0,0,1-2.1-6.6,13.089,13.089,0,0,0,6.108,1.662c.234,0,5.362.09,6.074,6.244l-7.2-4.582a.771.771,0,1,0-.828,1.3l7.1,4.519A8.793,8.793,0,0,1,582.395,392.99Zm23.4,15.441a.768.768,0,0,0,.553.475c2.576.566,4.45,1.227,4.69,4.31A101.842,101.842,0,0,1,598,413.8a14.39,14.39,0,0,0-1.849.1,26.048,26.048,0,0,1-10.4-.76,16.858,16.858,0,0,1,3.844-5.982c1.618-1.671,4.195-3.649,7.364-3.741a.741.741,0,0,0,.227.046.756.756,0,0,0,.187-.038C598.539,403.535,604.182,404.246,605.793,408.431Zm8.479-15.2a9.021,9.021,0,0,1-9,3.978,6.157,6.157,0,0,1-3.156-1.093l9.273-4.279a.771.771,0,0,0-.646-1.4l-8.863,4.09a7.244,7.244,0,0,1,1.929-4.616,6.516,6.516,0,0,1,4.174-1.743,18.107,18.107,0,0,0,7.708-1.9l0,2.6A10.152,10.152,0,0,1,614.272,393.233Z" transform="translate(-557.864 -354.661)" fill="#fff"/>
    </g>
  </g>
</svg>
